<svg width="643" height="226" viewBox="0 0 643 226" fill="none" xmlns="http://www.w3.org/2000/svg">
<path d="M19.92 93.9123C14.992 93.9123 10.816 92.2163 7.392 88.8243C4 85.4323 2.304 81.2563 2.304 76.2963C2.304 71.3363 4 67.1603 7.392 63.7683C10.816 60.3763 14.992 58.6803 19.92 58.6803C23.856 58.6803 27.296 59.7363 30.24 61.8483C33.184 63.9603 35.136 66.4563 36.096 69.3363H32.064C31.072 67.2243 29.488 65.4963 27.312 64.1523C25.168 62.8083 22.704 62.1363 19.92 62.1363C15.984 62.1363 12.672 63.5123 9.984 66.2643C7.328 68.9843 6 72.3283 6 76.2963C6 80.2963 7.328 83.6563 9.984 86.3763C12.672 89.0963 15.984 90.4563 19.92 90.4563C23.632 90.4563 26.704 89.2403 29.136 86.8083C31.6 84.3763 32.992 81.3043 33.312 77.5923H19.92V74.1363H37.056C37.44 79.9283 35.936 84.6803 32.544 88.3923C29.184 92.0723 24.976 93.9123 19.92 93.9123ZM53.679 93.8163C50.223 93.8163 47.375 92.6323 45.135 90.2643C42.895 87.8963 41.775 84.9203 41.775 81.3363C41.775 77.7523 42.863 74.7763 45.039 72.4083C47.215 70.0403 50.143 68.8563 53.823 68.8563C57.503 68.8563 60.367 70.2003 62.415 72.8883C64.463 75.5443 65.327 78.6803 65.007 82.2963H45.231C45.231 84.6963 46.079 86.6963 47.775 88.2963C49.471 89.8963 51.439 90.6963 53.679 90.6963C57.135 90.6963 59.631 89.1923 61.167 86.1843H64.623C64.015 88.3923 62.767 90.2163 60.879 91.6563C58.991 93.0963 56.591 93.8163 53.679 93.8163ZM53.679 71.9763C51.663 71.9763 49.887 72.5843 48.351 73.8003C46.815 74.9843 45.839 76.8403 45.423 79.3683H61.551C61.167 77.0003 60.271 75.1763 58.863 73.8963C57.455 72.6163 55.727 71.9763 53.679 71.9763ZM79.9031 93.5763C77.8871 93.5763 76.2391 93.0003 74.9591 91.8483C73.7111 90.6643 73.0871 88.9363 73.0871 86.6643V72.5043H67.9511V69.3363H73.0871V62.6643H76.4471V69.3363H83.4551V72.5043H76.4471V86.3763C76.4471 87.8483 76.7671 88.9043 77.4071 89.5443C78.0791 90.1523 79.0871 90.4563 80.4311 90.4563C81.6471 90.4563 82.6551 90.2803 83.4551 89.9283V92.9523C82.3991 93.3683 81.2151 93.5763 79.9031 93.5763ZM108.977 93.5763C106.961 93.5763 105.313 93.0003 104.033 91.8483C102.785 90.6643 102.161 88.9363 102.161 86.6643V72.5043H97.0249V69.3363H102.161V62.6643H105.521V69.3363H112.529V72.5043H105.521V86.3763C105.521 87.8483 105.841 88.9043 106.481 89.5443C107.153 90.1523 108.161 90.4563 109.505 90.4563C110.721 90.4563 111.729 90.2803 112.529 89.9283V92.9523C111.473 93.3683 110.289 93.5763 108.977 93.5763ZM121.61 93.3363H118.25V57.3363H121.61V73.3683C123.242 70.3603 125.866 68.8563 129.482 68.8563C132.138 68.8563 134.298 69.7043 135.962 71.4003C137.658 73.0963 138.506 75.4003 138.506 78.3123V93.3363H135.146V78.7923C135.146 76.7123 134.586 75.0643 133.466 73.8483C132.378 72.6003 130.922 71.9763 129.098 71.9763C126.922 71.9763 125.13 72.8243 123.722 74.5203C122.314 76.1843 121.61 78.4723 121.61 81.3843V93.3363ZM156.551 93.8163C153.095 93.8163 150.247 92.6323 148.007 90.2643C145.767 87.8963 144.647 84.9203 144.647 81.3363C144.647 77.7523 145.735 74.7763 147.911 72.4083C150.087 70.0403 153.015 68.8563 156.695 68.8563C160.375 68.8563 163.239 70.2003 165.287 72.8883C167.335 75.5443 168.199 78.6803 167.879 82.2963H148.103C148.103 84.6963 148.951 86.6963 150.647 88.2963C152.343 89.8963 154.311 90.6963 156.551 90.6963C160.007 90.6963 162.503 89.1923 164.039 86.1843H167.495C166.887 88.3923 165.639 90.2163 163.751 91.6563C161.863 93.0963 159.463 93.8163 156.551 93.8163ZM156.551 71.9763C154.535 71.9763 152.759 72.5843 151.223 73.8003C149.687 74.9843 148.711 76.8403 148.295 79.3683H164.423C164.039 77.0003 163.143 75.1763 161.735 73.8963C160.327 72.6163 158.599 71.9763 156.551 71.9763ZM189.83 103.368H186.47V69.3363H189.83V73.3683C190.694 72.0243 191.926 70.9363 193.526 70.1043C195.158 69.2723 196.886 68.8563 198.71 68.8563C202.07 68.8563 204.902 70.0723 207.206 72.5043C209.51 74.9363 210.662 77.8803 210.662 81.3363C210.662 84.7923 209.51 87.7363 207.206 90.1683C204.902 92.6003 202.07 93.8163 198.71 93.8163C196.886 93.8163 195.158 93.4003 193.526 92.5683C191.926 91.7363 190.694 90.6483 189.83 89.3043V103.368ZM191.99 88.0083C193.654 89.8003 195.782 90.6963 198.374 90.6963C200.966 90.6963 203.078 89.8003 204.71 88.0083C206.374 86.1843 207.206 83.9603 207.206 81.3363C207.206 78.7123 206.374 76.5043 204.71 74.7123C203.078 72.8883 200.966 71.9763 198.374 71.9763C195.782 71.9763 193.654 72.8883 191.99 74.7123C190.358 76.5043 189.542 78.7123 189.542 81.3363C189.542 83.9603 190.358 86.1843 191.99 88.0083ZM227.115 93.8163C223.659 93.8163 220.811 92.6323 218.571 90.2643C216.331 87.8963 215.211 84.9203 215.211 81.3363C215.211 77.7523 216.299 74.7763 218.475 72.4083C220.651 70.0403 223.579 68.8563 227.259 68.8563C230.939 68.8563 233.803 70.2003 235.851 72.8883C237.899 75.5443 238.763 78.6803 238.443 82.2963H218.667C218.667 84.6963 219.515 86.6963 221.211 88.2963C222.907 89.8963 224.875 90.6963 227.115 90.6963C230.571 90.6963 233.067 89.1923 234.603 86.1843H238.059C237.451 88.3923 236.203 90.2163 234.315 91.6563C232.427 93.0963 230.027 93.8163 227.115 93.8163ZM227.115 71.9763C225.099 71.9763 223.323 72.5843 221.787 73.8003C220.251 74.9843 219.275 76.8403 218.859 79.3683H234.987C234.603 77.0003 233.707 75.1763 232.299 73.8963C230.891 72.6163 229.163 71.9763 227.115 71.9763ZM245.028 93.3363V69.3363H248.388V74.2803C248.9 72.6803 249.812 71.4163 251.124 70.4883C252.436 69.5603 253.844 69.0963 255.348 69.0963C256.02 69.0963 256.596 69.1603 257.076 69.2883V72.7923C256.5 72.5683 255.828 72.4563 255.06 72.4563C253.364 72.4563 251.828 73.2243 250.452 74.7603C249.076 76.2963 248.388 78.4723 248.388 81.2883V93.3363H245.028ZM264.248 93.3363V72.5043H259.112V69.3363H264.248V63.9603C264.248 61.6883 264.856 59.9763 266.072 58.8243C267.32 57.6403 268.968 57.0483 271.016 57.0483C272.36 57.0483 273.56 57.2563 274.616 57.6723V60.6963C273.816 60.3443 272.792 60.1683 271.544 60.1683C270.2 60.1683 269.208 60.4883 268.568 61.1283C267.928 61.7363 267.608 62.7763 267.608 64.2483V69.3363H274.616V72.5043H267.608V93.3363H264.248ZM288.96 93.8163C285.504 93.8163 282.656 92.6323 280.416 90.2643C278.176 87.8963 277.056 84.9203 277.056 81.3363C277.056 77.7523 278.144 74.7763 280.32 72.4083C282.496 70.0403 285.424 68.8563 289.104 68.8563C292.784 68.8563 295.648 70.2003 297.696 72.8883C299.744 75.5443 300.608 78.6803 300.288 82.2963H280.512C280.512 84.6963 281.36 86.6963 283.056 88.2963C284.752 89.8963 286.72 90.6963 288.96 90.6963C292.416 90.6963 294.912 89.1923 296.448 86.1843H299.904C299.296 88.3923 298.048 90.2163 296.16 91.6563C294.272 93.0963 291.872 93.8163 288.96 93.8163ZM288.96 71.9763C286.944 71.9763 285.168 72.5843 283.632 73.8003C282.096 74.9843 281.12 76.8403 280.704 79.3683H296.832C296.448 77.0003 295.552 75.1763 294.144 73.8963C292.736 72.6163 291.008 71.9763 288.96 71.9763ZM317.385 93.8163C313.769 93.8163 310.777 92.6163 308.409 90.2163C306.041 87.7843 304.857 84.8243 304.857 81.3363C304.857 77.8483 306.041 74.9043 308.409 72.5043C310.777 70.0723 313.769 68.8563 317.385 68.8563C320.297 68.8563 322.841 69.6723 325.017 71.3043C327.193 72.9043 328.649 74.9843 329.385 77.5443H325.737C325.161 75.8803 324.121 74.5363 322.617 73.5123C321.113 72.4883 319.369 71.9763 317.385 71.9763C314.697 71.9763 312.505 72.8883 310.809 74.7123C309.145 76.5043 308.313 78.7123 308.313 81.3363C308.313 83.9603 309.145 86.1843 310.809 88.0083C312.505 89.8003 314.697 90.6963 317.385 90.6963C319.369 90.6963 321.113 90.1843 322.617 89.1603C324.121 88.1363 325.161 86.7923 325.737 85.1283H329.385C328.649 87.6883 327.193 89.7843 325.017 91.4163C322.841 93.0163 320.297 93.8163 317.385 93.8163ZM343.83 93.5763C341.814 93.5763 340.166 93.0003 338.886 91.8483C337.638 90.6643 337.014 88.9363 337.014 86.6643V72.5043H331.878V69.3363H337.014V62.6643H340.374V69.3363H347.382V72.5043H340.374V86.3763C340.374 87.8483 340.694 88.9043 341.334 89.5443C342.006 90.1523 343.014 90.4563 344.358 90.4563C345.574 90.4563 346.582 90.2803 347.382 89.9283V92.9523C346.326 93.3683 345.142 93.5763 343.83 93.5763ZM12.96 194.966C6.6 188.606 3.42 180.746 3.42 171.386C3.42 162.026 6.6 154.196 12.96 147.896C19.32 141.536 27.3 138.356 36.9 138.356C44.22 138.356 50.76 140.486 56.52 144.746C62.34 148.946 66.12 154.436 67.86 161.216H53.73C52.41 158.096 50.19 155.606 47.07 153.746C43.95 151.886 40.56 150.956 36.9 150.956C30.9 150.956 26.01 152.906 22.23 156.806C18.45 160.706 16.56 165.566 16.56 171.386C16.56 177.206 18.45 182.066 22.23 185.966C26.01 189.866 30.9 191.816 36.9 191.816C40.56 191.816 43.95 190.886 47.07 189.026C50.19 187.166 52.41 184.676 53.73 181.556H67.86C66.12 188.336 62.34 193.856 56.52 198.116C50.76 202.316 44.22 204.416 36.9 204.416C27.3 204.416 19.32 201.266 12.96 194.966ZM77.9646 203.336V135.836H90.2946V163.466C91.4946 161.606 93.2046 160.136 95.4246 159.056C97.7046 157.916 100.285 157.346 103.165 157.346C108.565 157.346 112.795 159.146 115.855 162.746C118.975 166.286 120.535 171.026 120.535 176.966V203.336H108.205V179.036C108.205 175.736 107.515 173.186 106.135 171.386C104.755 169.526 102.805 168.596 100.285 168.596C97.2846 168.596 94.8546 169.706 92.9946 171.926C91.1946 174.086 90.2946 177.236 90.2946 181.376V203.336H77.9646ZM177.382 188.666C176.002 193.286 173.212 197.066 169.012 200.006C164.872 202.886 159.982 204.326 154.342 204.326C147.442 204.326 141.772 202.106 137.332 197.666C132.952 193.226 130.762 187.586 130.762 180.746C130.762 174.026 132.982 168.446 137.422 164.006C141.922 159.566 147.592 157.346 154.432 157.346C161.332 157.346 167.032 159.716 171.532 164.456C176.092 169.136 178.222 175.556 177.922 183.716H142.822C143.122 186.536 144.292 188.906 146.332 190.826C148.432 192.686 151.312 193.616 154.972 193.616C157.132 193.616 159.082 193.166 160.822 192.266C162.562 191.366 163.792 190.166 164.512 188.666H177.382ZM154.072 167.336C151.312 167.336 148.972 168.086 147.052 169.586C145.132 171.086 143.872 173.096 143.272 175.616H164.422C163.702 172.796 162.382 170.726 160.462 169.406C158.542 168.026 156.412 167.336 154.072 167.336ZM188.703 203.336V158.336H201.033V163.466C203.853 159.386 207.843 157.346 213.003 157.346C219.423 157.346 224.073 160.106 226.953 165.626C228.273 162.986 230.223 160.946 232.803 159.506C235.443 158.066 238.143 157.346 240.903 157.346C246.183 157.346 250.293 159.146 253.233 162.746C256.233 166.286 257.733 171.116 257.733 177.236V203.336H245.403V179.306C245.403 172.166 243.063 168.596 238.383 168.596C235.623 168.596 233.433 169.676 231.813 171.836C230.193 173.996 229.383 177.176 229.383 181.376V203.336H217.053V179.306C217.053 172.166 214.713 168.596 210.033 168.596C207.273 168.596 205.083 169.676 203.463 171.836C201.843 173.996 201.033 177.176 201.033 181.376V203.336H188.703ZM340.635 186.146C339.375 191.546 336.705 195.926 332.625 199.286C328.605 202.646 323.595 204.326 317.595 204.326C310.815 204.326 305.175 202.076 300.675 197.576C296.175 193.016 293.925 187.436 293.925 180.836C293.925 174.236 296.175 168.686 300.675 164.186C305.175 159.626 310.815 157.346 317.595 157.346C323.595 157.346 328.605 159.026 332.625 162.386C336.705 165.746 339.375 170.126 340.635 175.526H327.855C325.875 170.846 322.455 168.506 317.595 168.506C314.295 168.506 311.595 169.646 309.495 171.926C307.395 174.146 306.345 177.116 306.345 180.836C306.345 184.556 307.395 187.556 309.495 189.836C311.595 192.056 314.295 193.166 317.595 193.166C322.455 193.166 325.875 190.826 327.855 186.146H340.635ZM354.052 197.396C349.972 192.776 347.932 187.256 347.932 180.836C347.932 174.416 349.972 168.896 354.052 164.276C358.132 159.656 363.142 157.346 369.082 157.346C371.962 157.346 374.542 157.946 376.822 159.146C379.162 160.346 380.902 161.756 382.042 163.376V158.336H394.372V203.336H382.042V198.296C380.902 199.916 379.162 201.326 376.822 202.526C374.542 203.726 371.962 204.326 369.082 204.326C363.142 204.326 358.132 202.016 354.052 197.396ZM379.882 189.656C381.982 187.316 383.032 184.376 383.032 180.836C383.032 177.296 381.982 174.386 379.882 172.106C377.782 169.766 375.052 168.596 371.692 168.596C368.332 168.596 365.602 169.766 363.502 172.106C361.402 174.386 360.352 177.296 360.352 180.836C360.352 184.376 361.402 187.316 363.502 189.656C365.602 191.936 368.332 193.076 371.692 193.076C375.052 193.076 377.782 191.936 379.882 189.656ZM408.159 203.336V135.836H420.489V203.336H408.159ZM470.309 190.646C470.309 194.786 468.539 198.116 464.999 200.636C461.519 203.096 457.019 204.326 451.499 204.326C445.739 204.326 440.969 202.886 437.189 200.006C433.409 197.126 431.399 193.466 431.159 189.026H444.029C444.269 190.946 445.109 192.416 446.549 193.436C447.989 194.396 449.759 194.876 451.859 194.876C455.759 194.876 457.709 193.676 457.709 191.276C457.709 190.136 457.259 189.236 456.359 188.576C455.519 187.856 454.079 187.256 452.039 186.776L443.579 184.616C439.799 183.656 436.949 181.946 435.029 179.486C433.109 177.026 432.149 174.086 432.149 170.666C432.149 166.706 433.769 163.496 437.009 161.036C440.309 158.576 444.719 157.346 450.239 157.346C455.279 157.346 459.479 158.606 462.839 161.126C466.199 163.646 468.059 167.126 468.419 171.566H455.999C455.459 168.506 453.479 166.976 450.059 166.976C448.439 166.976 447.149 167.276 446.189 167.876C445.229 168.476 444.749 169.316 444.749 170.396C444.749 172.376 446.459 173.756 449.879 174.536L457.799 176.696C466.139 178.796 470.309 183.446 470.309 190.646Z" fill="#252525"/>
<path d="M282.535 137.636C284.095 139.136 284.875 140.966 284.875 143.126C284.875 145.286 284.095 147.146 282.535 148.706C281.035 150.206 279.175 150.956 276.955 150.956C274.855 150.956 273.025 150.206 271.465 148.706C269.905 147.146 269.125 145.286 269.125 143.126C269.125 140.966 269.905 139.136 271.465 137.636C273.025 136.076 274.855 135.296 276.955 135.296C279.175 135.296 281.035 136.076 282.535 137.636ZM270.835 203.336V158.336H283.165V203.336H270.835Z" fill="#9AA4FF"/>
<path d="M519 19.2715L528.274 34.1123L520.853 38.7491L535.891 62.8135C541.26 71.4064 548.422 78.7241 556.895 84.2741L631.68 133.251C637.746 137.23 639.436 145.367 635.46 151.421C634.425 153.017 633.055 154.358 631.445 155.365L532.664 217.09C526.52 220.929 518.418 219.058 514.578 212.914C513.572 211.304 512.924 209.491 512.686 207.607L501.449 118.92C500.179 108.88 496.738 99.2271 491.368 90.6343L476.331 66.5699L468.911 71.2067L459.637 56.3658L519 19.2715ZM506.013 48.0227L491.172 57.2963L509.719 86.978L524.56 77.7044L506.013 48.0227Z" fill="#9AA4FF"/>
</svg>
