<svg width="148" height="31" viewBox="0 0 148 31" fill="none" xmlns="http://www.w3.org/2000/svg">
<path d="M19.39 30H15.64L4.72 16.11V30H0.37V8.7H4.12L15.04 22.59V8.7H19.39V30ZM22.6298 30V8.7H30.4298C32.2098 8.7 33.7098 9.31 34.9298 10.53C36.1498 11.73 36.7598 13.18 36.7598 14.88C36.7598 16.44 36.1998 17.71 35.0798 18.69C36.0398 19.15 36.7998 19.82 37.3598 20.7C37.9398 21.56 38.2298 22.57 38.2298 23.73C38.2298 25.51 37.5998 27 36.3398 28.2C35.0798 29.4 33.5098 30 31.6298 30H22.6298ZM26.9798 17.43H30.0098C30.7498 17.43 31.3498 17.21 31.8098 16.77C32.2898 16.31 32.5298 15.74 32.5298 15.06C32.5298 14.4 32.2898 13.84 31.8098 13.38C31.3498 12.9 30.7498 12.66 30.0098 12.66H26.9798V17.43ZM26.9798 26.01H31.3298C32.1298 26.01 32.7698 25.78 33.2498 25.32C33.7498 24.86 33.9998 24.28 33.9998 23.58C33.9998 22.88 33.7498 22.3 33.2498 21.84C32.7698 21.36 32.1298 21.12 31.3298 21.12H26.9798V26.01ZM43.5334 26.28C40.7068 23.4533 39.2934 19.96 39.2934 15.8C39.2934 11.64 40.7068 8.16 43.5334 5.36C46.3601 2.53333 49.9068 1.12 54.1734 1.12C57.4268 1.12 60.3334 2.06666 62.8934 3.96C65.4801 5.82667 67.1601 8.26667 67.9334 11.28H61.6534C61.0668 9.89333 60.0801 8.78667 58.6934 7.96C57.3068 7.13333 55.8001 6.72 54.1734 6.72C51.5068 6.72 49.3334 7.58667 47.6534 9.32C45.9734 11.0533 45.1334 13.2133 45.1334 15.8C45.1334 18.3867 45.9734 20.5467 47.6534 22.28C49.3334 24.0133 51.5068 24.88 54.1734 24.88C55.8001 24.88 57.3068 24.4667 58.6934 23.64C60.0801 22.8133 61.0668 21.7067 61.6534 20.32H67.9334C67.1601 23.3333 65.4801 25.7867 62.8934 27.68C60.3334 29.5467 57.4268 30.48 54.1734 30.48C49.9068 30.48 46.3601 29.08 43.5334 26.28Z" fill="#6C73AF"/>
<path d="M75.1044 30H69.6244V-2.38419e-06H75.1044V12.28C76.331 10.4667 78.2377 9.56 80.8244 9.56C83.2244 9.56 85.1044 10.36 86.4644 11.96C87.851 13.5333 88.5444 15.64 88.5444 18.28V30H83.0644V19.2C83.0644 17.7333 82.7577 16.6 82.1444 15.8C81.531 14.9733 80.6644 14.56 79.5444 14.56C78.211 14.56 77.131 15.04 76.3044 16C75.5044 16.96 75.1044 18.3733 75.1044 20.24V30ZM102.37 30.44C99.303 30.44 96.783 29.4533 94.8097 27.48C92.863 25.5067 91.8897 23 91.8897 19.96C91.8897 16.9733 92.8764 14.4933 94.8497 12.52C96.8497 10.5467 99.3697 9.56 102.41 9.56C105.476 9.56 108.023 10.6133 110.05 12.72C112.076 14.8 113.01 17.6533 112.85 21.28H97.2497C97.3564 22.5333 97.8764 23.5867 98.8097 24.44C99.743 25.2667 101.023 25.68 102.65 25.68C103.636 25.68 104.503 25.4933 105.25 25.12C106.023 24.72 106.57 24.1733 106.89 23.48H112.61C112.023 25.5333 110.796 27.2133 108.93 28.52C107.063 29.8 104.876 30.44 102.37 30.44ZM102.25 14C100.996 14 99.943 14.3333 99.0897 15C98.263 15.64 97.7164 16.5333 97.4497 17.68H106.85C106.556 16.4267 105.97 15.5067 105.09 14.92C104.236 14.3067 103.29 14 102.25 14ZM141.642 30V19.32C141.642 16.1467 140.602 14.56 138.522 14.56C137.322 14.56 136.362 15.0133 135.642 15.92C134.948 16.8267 134.575 18.1733 134.522 19.96V30H129.042V19.32C129.042 16.1467 128.002 14.56 125.922 14.56C124.695 14.56 123.722 15.04 123.002 16C122.282 16.96 121.922 18.3733 121.922 20.24V30H116.442V10H121.922V12.28C123.175 10.4667 124.948 9.56 127.242 9.56C130.042 9.56 132.108 10.7867 133.442 13.24C134.028 12.0933 134.908 11.2 136.082 10.56C137.255 9.89333 138.442 9.56 139.642 9.56C142.015 9.56 143.855 10.3467 145.162 11.92C146.468 13.4933 147.122 15.6533 147.122 18.4V30H141.642Z" fill="#363636"/>
</svg>
